<svg id="Layer_1" data-name="Layer 1" xmlns="http://www.w3.org/2000/svg" viewBox="0 0 122.25 124.04"><defs><style>.cls-1{fill:#ffe300;}</style></defs><title>burger</title><g id="royal_crown" data-name="royal crown"><polygon class="cls-1" points="58.03 6.04 51.38 5.99 51.34 12.81 57.98 12.86 57.93 19.95 64.31 19.99 64.36 13.04 70.82 13.09 70.87 6.13 64.68 6.08 64.73 0.05 58.08 0 58.03 6.04"/><path class="cls-1" d="M46.35,21.8l-2.26,5.81s5,4.88,16.85,4.55,17.37-4,17.37-4L75.3,22c0-.84-2.47,3.18-14.31,3.5C50.35,25.8,47.11,21.2,46.35,21.8Z"/><path class="cls-1" d="M18,94.19S46.59,83.47,70.29,86c23.36,2.47,32.06,8.32,32.05,8.82,0,0,1,2.64,0,4.29s-4.58,1.35-4.58,1.35-3.32.4.4,3.06,12.8,10.89,12.8,10.89-13.78,9-16.41,9.44-12.83-8-18.85-17.86c0,0-16.37,2.23-29.37-.22-.86,1.62-16.85,18.78-20.5,18.28,0,0-14.62-8.14-16.68-10.79,0,0,12.54-9.93,13.66-11.14s2.51-2.46-1.37-2.48C17.26,98.62,17.55,97.23,18,94.19Zm2.5,19.13C21.58,114.16,27,116,27,116c7.22-1.88,19.15-23.69,19.15-23.69l-5.55.93C35.8,99.36,19.38,112.48,20.48,113.32Zm73.81,3.17c3.61-.39,7.22-1.89,5.84-2.87-1.94-.29-17.87-18.55-19.25-19.25a48.53,48.53,0,0,0-6.5-1.85C73.81,94.59,90.69,116.88,94.29,116.49ZM51.19,99.28c4,1.83,19,.13,19,.13l-3.44-7L55,92.38ZM23.87,47c-9.57,1.59-2,11.07-2,11.07s6.74,6.42,8.77,13.22,2.87,4.87,2.87,4.87c3.06-1.22,18.31-3.61,18.31-3.61,1.74-10.37-7.75-39.26-7.75-39.26l8.43,3.39a166.37,166.37,0,0,1,6.25,35.65l3.88,0c1.1-18.56,7-36.39,7-36.39l8.6-2c-7.84,12.41-8.87,39-8.87,39,4.86-.93,19.5,5,19.79,2.91s7.58-13.38,11.65-20c2.67-5.52,1.72-8.44-7.7-8.92A44.45,44.45,0,0,0,75.8,49.72c-.22-8.17,10.55-23.33,29-19.22s22,25.82,12.21,35.87-13.48,24.28-13.48,24.28-17.64-12.73-44-11.54S17.32,90,17.32,90c-.09-6.79-7.91-17.51-13.53-25.87C-.24,55.82.15,51.39,0,50.7s.42-20,21.9-20.76S46.29,49.37,46.29,49.37,33.44,45.4,23.87,47Zm-3.21,33.5,5.61-2.31S21.65,66.79,16.14,61.76,6.06,38.69,31.54,39.43c0,0-13.38-7.3-21.91,3.16s2.75,22,2.75,22S21.05,76.89,20.66,80.49Zm83.31-38c10,4.3,3.2,17.2,2.5,17.82S95,77.84,95,77.84l5,3.23c.72-4,14.16-22.76,14.16-22.76s4-11.33-5-18.18-21.26.54-21.26.54S94,38.14,104,42.45Z"/></g></svg>