<svg id="Layer_1" data-name="Layer 1" xmlns="http://www.w3.org/2000/svg" viewBox="0 0 359.53 115.95"><defs><style>.cls-1{fill:#0d0c0b;}.cls-2{fill:#ffe300;}</style></defs><title>Logo</title><rect id="background" class="cls-1" width="359.53" height="115.95"/><g id="Tyskie"><polygon id="T" class="cls-2" points="24.28 53.33 24.28 63.76 40.11 63.76 40.11 94.37 58.74 94.37 58.74 63.76 74.83 63.76 74.83 53.33 24.28 53.33"/><path id="y" class="cls-2" d="M77.48,64.85H93.57L101,83.47l6.39-18.62h15.83l-14,31.35s-2.29,7.22-11.74,8.93H83.1V96.58H90s2.8.19.51-4.47S77.48,64.85,77.48,64.85Z"/><path id="s" class="cls-2" d="M148.2,72.23h14.64s-.85-7.85-15.32-9.5-23.49,5.32-23,8.49c0,0-1,7.09,5.11,8.86a45.71,45.71,0,0,0,12.43,2.28c7.83.51,7.83,4.69,2.55,5.45s-7-2.91-6.47-3.55S122.84,84,122.84,84s0,9.25,13.79,10.26c13.79.38,24.68.13,27.74-8.61s-14.46-11-16.51-11-12.08-1.9-7.15-4.56C146.16,68.05,148.2,72.23,148.2,72.23Z"/><path id="e" class="cls-2" d="M265.18,86.63c-5.7.25-7.4-3.55-7.06-5.7H287.9s0-14.57-13.1-17.1-23.49-.51-27.58,4c0,0-9.19,7.35-2,19.76,0,0,3.41,4.43,13.45,6.08s26.21-1.65,27.74-9.88H270.71S270.88,86.37,265.18,86.63Zm-.25-16.49a8,8,0,0,1,7.32,4.94H257.61A8,8,0,0,1,264.93,70.14Z"/><path id="i" class="cls-2" d="M236.66,52.89v8.48H221V52.89ZM221,94.82h15.66V64.67H221Z"/><path id="k" class="cls-2" d="M169.7,94.31h16.68V85.82s1.36-1.52,2.05-1.52,8.85,10,8.85,10h20.25l-17-17.86,14.3-12.29h-18.9L186,73.28l.17-19.89H169.7Z"/></g><g id="royal_crown" data-name="royal crown"><polygon class="cls-2" points="313.15 18.1 310.24 18.1 310.24 21.09 313.15 21.09 313.15 24.19 315.94 24.19 315.94 21.14 318.76 21.14 318.76 18.1 316.06 18.1 316.06 15.46 313.15 15.46 313.15 18.1"/><path class="cls-2" d="M308.09,25l-1,2.54s2.22,2.12,7.38,1.94,7.59-1.82,7.59-1.82L320.75,25c0-.37-1.07,1.39-6.25,1.57C309.85,26.77,308.42,24.77,308.09,25Z"/><path class="cls-2" d="M295.91,56.79S308.39,52,318.76,53s14.05,3.54,14.05,3.76a2.58,2.58,0,0,1,0,1.87c-.42.73-2,.61-2,.61s-1.45.18.18,1.33,5.64,4.73,5.64,4.73-6,4-7.15,4.18-5.64-3.45-8.3-7.75a47.76,47.76,0,0,1-12.85,0c-.37.7-7.31,8.26-8.91,8.05,0,0-6.42-3.51-7.33-4.66,0,0,5.46-4.38,5.94-4.92s1.09-1.08-.61-1.08C295.61,58.73,295.73,58.12,295.91,56.79Zm1.15,8.36a20.52,20.52,0,0,0,2.85,1.15c3.15-.85,8.3-10.42,8.3-10.42l-2.42.42C303.72,59,296.58,64.78,297.06,65.15Zm32.3,1.15c1.57-.18,3.15-.85,2.54-1.27-.85-.12-7.87-8.06-8.48-8.36a20.88,20.88,0,0,0-2.85-.79C320.33,56.79,327.78,66.48,329.36,66.3Zm-18.91-7.39c1.76.79,8.31,0,8.31,0l-1.52-3h-5.15ZM298.33,36.12c-4.18.73-.84,4.85-.84,4.85a16.18,16.18,0,0,1,3.87,5.76c.91,3,1.28,2.12,1.28,2.12a80.4,80.4,0,0,1,8-1.64c.73-4.54-3.51-17.15-3.51-17.15l3.7,1.46a72.64,72.64,0,0,1,2.84,15.57h1.7a70.34,70.34,0,0,1,3-15.93l3.76-.91c-3.4,5.45-3.76,17.08-3.76,17.08,2.12-.42,8.54,2.12,8.66,1.22s3.28-5.88,5-8.79c1.15-2.42.73-3.7-3.39-3.88a19.53,19.53,0,0,0-7.57,1.27c-.13-3.57,4.54-10.24,12.6-8.49s9.69,11.22,5.45,15.64A27,27,0,0,0,333.3,55,32.69,32.69,0,0,0,314,50.06c-11.52.61-18.42,4.91-18.42,4.91-.06-3-3.52-7.64-6-11.27a13.74,13.74,0,0,1-1.7-5.88c-.06-.3.12-8.72,9.51-9.15s10.73,8.42,10.73,8.42S302.51,35.4,298.33,36.12ZM297,50.79l2.44-1s-2.06-5-4.48-7.15-4.48-10.06,6.67-9.82c0,0-5.88-3.15-9.58,1.46s1.27,9.63,1.27,9.63S297.2,49.21,297,50.79Zm36.32-16.91c4.39,1.85,1.45,7.52,1.15,7.79s-5,7.72-5,7.72l2.18,1.4c.3-1.76,6.12-10,6.12-10s1.7-5-2.24-7.94-9.3.3-9.3.3S329,32,333.36,33.88Z"/></g></svg>